<svg xmlns="http://www.w3.org/2000/svg" viewBox="345 485 390 108"><path d="M409.32,538.84l11.43,1.16-11.43,1.16c-5.7.58-10.2,5.08-10.78,10.78l-1.16,11.43-1.16-11.43c-.58-5.7-5.08-10.2-10.78-10.78l-11.43-1.16,11.43-1.16c5.7-.58,10.2-5.08,10.78-10.78l1.16-11.43,1.16,11.43c.58,5.7,5.08,10.2,10.78,10.78Z" fill="#f7f5e3"/><path d="M442.53,496.86v-2h-44.43s2.22,7.07,2.22,7.07c.89,2.83,3.77,4.55,6.68,3.97,7.02-1.38,19.23-3.69,23.24-3.94.98-.06,1.98-.08,2.92.21h.01c.97.31,1.73,1.07,2.03,2.04h0c.29.95.27,1.95.21,2.93-.25,4-2.56,16.21-3.94,23.24-.57,2.91,1.14,5.79,3.97,6.68l7.08,2.22v-42.42Z" fill="#f7f5e3"/><path d="M352.24,496.86v-2h2s42.42,0,42.42,0l-2.22,7.08c-.89,2.83-3.77,4.55-6.68,3.97-7.02-1.38-19.23-3.69-23.24-3.94-.98-.06-1.98-.08-2.92.21h-.01c-.97.31-1.73,1.07-2.03,2.04h0c-.29.95-.27,1.95-.21,2.93.25,4,2.56,16.21,3.94,23.24.57,2.91-1.14,5.79-3.97,6.68l-7.08,2.22v-42.42Z" fill="#f7f5e3"/><path d="M352.24,583.14v2h44.43s-2.22-7.07-2.22-7.07c-.89-2.83-3.77-4.55-6.68-3.97-7.02,1.38-19.23,3.69-23.24,3.94-.98.06-1.98.08-2.92-.21h-.01c-.97-.31-1.73-1.07-2.03-2.04h0c-.29-.95-.27-1.95-.21-2.93.25-4,2.56-16.21,3.94-23.24.57-2.91-1.14-5.79-3.97-6.68l-7.08-2.22v42.42Z" fill="#f7f5e3"/><path d="M442.53,583.14v2h-2s-42.42,0-42.42,0l2.22-7.08c.89-2.83,3.77-4.55,6.68-3.97,7.02,1.38,19.23,3.69,23.24,3.94.98.06,1.98.08,2.92-.21h.01c.97-.31,1.73-1.07,2.03-2.04h0c.29-.95.27-1.95.21-2.93-.25-4-2.56-16.21-3.94-23.24-.57-2.91,1.14-5.79,3.97-6.68l7.08-2.22v42.42Z" fill="#f7f5e3"/><path d="M482.15,545.86v13.06h23.17l-2.11,2.77h-27.5v-42.91h30.15l-2.65,2.65h-21.06v14.38h22.87l-2.11,2.65h-20.76v3.25h-.06v4.15h.06Z" fill="#f7f5e3"/><path d="M520.07,518.72v40.32h22.15c-1.53,1.73-2.31,2.61-2.35,2.65h-26.3v-42.97h6.5Z" fill="#f7f5e3"/><path d="M571.65,518.6h1.2l-14.02,22.45c-.12.16-.18.34-.18.54v20.1h-6.56l.12-16.91c0-.2-.06-.38-.18-.54l-14.38-23.23-1.5-2.41h7.82l12.28,20.1,11.25-18,1.26-2.11h2.89Z" fill="#f7f5e3"/><path d="M594.52,537.98c1.52.56,2.91,1.12,4.15,1.69,1.24.56,2.55,1.26,3.91,2.11,1.36.84,2.51,1.73,3.43,2.65.92.92,1.69,2.01,2.29,3.25.6,1.24.9,2.57.9,3.97,0,1.97-.48,3.69-1.44,5.18-.96,1.49-2.26,2.65-3.88,3.49-1.62.84-3.38,1.47-5.27,1.9-1.89.42-3.87.63-5.96.63-4.25,0-7.78-.88-10.59-2.65-2.81-1.77-4.63-4.33-5.48-7.7l4.15-.84c1.28,5.74,5.62,8.61,13,8.61,2.69,0,4.97-.74,6.86-2.23,1.89-1.48,2.83-3.39,2.83-5.72,0-.76-.11-1.44-.33-2.05-.22-.6-.62-1.17-1.2-1.71-.58-.54-1.12-1-1.63-1.38-.5-.38-1.31-.81-2.44-1.29-1.12-.48-2.05-.86-2.77-1.14-.72-.28-1.85-.68-3.37-1.2-.12-.08-.22-.13-.3-.15-.08-.02-.18-.05-.3-.09-.12-.04-.22-.08-.3-.12-.2-.08-.48-.18-.84-.3-1.24-.44-2.19-.78-2.83-1.02-.64-.24-1.53-.61-2.68-1.11-1.14-.5-2.04-.96-2.68-1.38-.64-.42-1.37-.96-2.2-1.63-.82-.66-1.44-1.34-1.87-2.05-.42-.7-.79-1.51-1.11-2.44-.32-.92-.48-1.93-.48-3.01,0-1.16.31-2.38.93-3.64.62-1.26,1.51-2.48,2.68-3.64,1.16-1.16,2.78-2.13,4.84-2.89,2.07-.76,4.38-1.14,6.95-1.14,7.42,0,12.84,2.63,16.25,7.88l-3.85,1.44c-3.09-4.73-7.18-7.1-12.28-7.1-1.44,0-2.76.17-3.94.51-1.18.34-2.13.77-2.83,1.29-.7.52-1.31,1.11-1.84,1.78-.52.66-.86,1.32-1.02,1.99-.16.66-.28,1.28-.36,1.87-.08.58-.04,1.07.12,1.47.12.52.31,1,.57,1.44.26.44.52.83.78,1.17.26.34.67.69,1.23,1.05.56.36,1.02.65,1.38.87.36.22.97.5,1.84.84.86.34,1.52.6,1.99.78.46.18,1.26.47,2.41.87,1.14.4,2,.7,2.56.9Z" fill="#f7f5e3"/><path d="M622.2,518.78h2.41v42.91h-6.56v-42.91h4.15Z" fill="#f7f5e3"/><path d="M671.86,518.72l.06,25.82c0,4.81-1.76,8.93-5.27,12.34-3.51,3.41-7.73,5.12-12.67,5.12-3.25,0-6.35-.77-9.3-2.32-2.95-1.54-5.33-3.67-7.13-6.38-1.81-2.71-2.71-5.63-2.71-8.76l-.06-23.41v-.96c0-.16,0-.33.03-.51.02-.18.03-.34.03-.48v-.45h6.44l.06,25.82c0,3.97,1.16,7.3,3.49,9.99,2.33,2.69,5.38,4.03,9.15,4.03,2.45,0,4.64-.37,6.59-1.11,1.95-.74,3.56-1.75,4.84-3.01,1.28-1.26,2.26-2.75,2.92-4.45.66-1.71.99-3.52.99-5.45v-23.29l-.06-2.53h2.59Z" fill="#f7f5e3"/><path d="M722.05,518.78h5.72v42.91h-5.9v-37.13l-18.06,32.86-19.02-29.01v33.28h-2.65v-42.91h4.69l19.14,29.13,16.07-29.13Z" fill="#f7f5e3"/></svg>